<?xml version="1.0" encoding="UTF-8"?>
<!DOCTYPE svg PUBLIC "-//W3C//DTD SVG 1.1//EN" "http://www.w3.org/Graphics/SVG/1.1/DTD/svg11.dtd">
<!-- Creator: CorelDRAW 2019 (64 Bit) -->
<svg xmlns="http://www.w3.org/2000/svg" xml:space="preserve" width="544px" height="93px" version="1.1" style="shape-rendering:geometricPrecision; text-rendering:geometricPrecision; image-rendering:optimizeQuality; fill-rule:evenodd; clip-rule:evenodd"
viewBox="0 0 544 93.44"
 xmlns:xlink="http://www.w3.org/1999/xlink">
 <defs>
  <style type="text/css">
   <![CDATA[
    .str0 {stroke:#26272B;stroke-width:3;stroke-miterlimit:22.9256;stroke-opacity:0.101961}
    .fil0 {fill:none;fill-rule:nonzero}
   ]]>
  </style>
 </defs>
 <g id="Camada_x0020_1">
  <metadata id="CorelCorpID_0Corel-Layer"/>
  <path class="fil0 str0" d="M59.09 43.5c-1.98,-0.95 -4.16,-1.74 -6.55,-2.39 -2.37,-0.65 -5.25,-0.98 -8.64,-0.98 -4.43,0 -8.27,0.95 -11.5,2.85 -3.24,1.92 -5.74,4.57 -7.47,7.97 -1.75,3.4 -2.62,7.2 -2.62,11.37 0,4.35 1.32,7.77 3.95,10.24 2.64,2.45 6.46,3.69 11.44,3.69 2.22,0 4.69,-0.35 7.42,-1.07 2.74,-0.72 5.39,-1.7 7.97,-2.94l-4.2 19.28c-5.09,1.82 -10.69,2.73 -16.81,2.73 -10.29,0 -18.22,-2.65 -23.81,-7.95 -5.59,-5.32 -8.39,-12.67 -8.39,-22.09 0,-8.42 1.92,-15.94 5.72,-22.53 3.82,-6.6 9.14,-11.56 15.99,-14.87 6.87,-3.32 14.91,-4.99 24.11,-4.99 2.97,0 6.11,0.23 9.39,0.7 3.29,0.48 6.06,1.03 8.31,1.68l-4.31 19.3zm46.74 49.55l-1.01 -12.9 -21.01 0 -6.31 12.9 -23.19 0 38.88 -70.03 26.23 0 7.91 70.03 -21.5 0zm-3.07 -49.25c0,-2.2 0.09,-3.8 0.25,-4.79l-0.49 0 -0.92 2.45 -1.87 4.25 -8.49 17.93 12.51 0 -0.93 -17.54 -0.06 -2.3zm96.33 -4.27l-19.82 0 -11.29 53.52 -21.21 0 11.29 -53.52 -19.6 0 3.47 -16.51 60.63 0 -3.47 16.51zm39.47 53.52l-1.02 -12.9 -21.01 0 -6.3 12.9 -23.19 0 38.88 -70.03 26.23 0 7.9 70.03 -21.49 0zm-3.07 -49.25c0,-2.2 0.09,-3.8 0.25,-4.79l-0.5 0 -0.91 2.45 -1.87 4.25 -8.49 17.93 12.51 0 -0.94 -17.54 -0.05 -2.3zm4.96 -27.28l-15.88 0 16.56 -15.71 18.71 0 -19.39 15.71zm72.91 76.53l-45.18 0 14.8 -70.03 21.09 0 -11.28 53.53 24.09 0 -3.52 16.5zm80.94 -40.52c0,7.69 -1.68,14.85 -5.05,21.45 -3.37,6.62 -8.04,11.64 -14.03,15.09 -5.96,3.45 -13.09,5.18 -21.32,5.18 -6.25,0 -11.62,-1.28 -16.14,-3.83 -4.5,-2.55 -7.96,-6.15 -10.34,-10.82 -2.37,-4.66 -3.55,-9.97 -3.55,-15.98 0,-7.73 1.7,-14.9 5.12,-21.47 3.41,-6.59 8.13,-11.63 14.12,-15.11 5.99,-3.49 12.94,-5.22 20.86,-5.22 9.4,0 16.82,2.73 22.23,8.2 5.4,5.47 8.1,12.98 8.1,22.51zm-22.43 0.71c0,-4.27 -0.88,-7.53 -2.65,-9.76 -1.78,-2.23 -4.32,-3.35 -7.65,-3.35 -3.05,0 -5.72,1.03 -8.01,3.08 -2.28,2.05 -4.06,4.89 -5.35,8.52 -1.28,3.64 -1.93,7.44 -1.93,11.41 0,4.33 0.9,7.6 2.68,9.8 1.8,2.21 4.27,3.31 7.44,3.31 2.93,0 5.55,-0.92 7.85,-2.74 2.32,-1.83 4.17,-4.6 5.56,-8.34 1.38,-3.73 2.06,-7.7 2.06,-11.93zm91.9 -9.74c-2.41,-1.39 -5.17,-2.5 -8.27,-3.34 -3.12,-0.81 -6.14,-1.23 -9.08,-1.23 -7.42,0 -13.22,2.1 -17.4,6.32 -4.19,4.22 -6.29,10.04 -6.29,17.46 0,4.68 1.17,8.32 3.47,10.88 2.32,2.57 5.58,3.86 9.82,3.86 1.5,0 2.97,-0.19 4.4,-0.54l2.2 -10.17 -12.9 0 3.42 -16.01 33.99 0 -8 37.7c-7.95,3.89 -16.67,5.82 -26.18,5.82 -10.34,0 -18.36,-2.71 -24.06,-8.15 -5.72,-5.44 -8.57,-13.12 -8.57,-23.06 0,-7.87 1.92,-15.01 5.79,-21.39 3.85,-6.39 9.25,-11.28 16.2,-14.69 6.96,-3.42 15.13,-5.14 24.51,-5.14 6.51,0 13.53,1.17 21.05,3.52l-4.1 18.16zm80.12 9.03c0,7.69 -1.69,14.85 -5.05,21.45 -3.37,6.62 -8.04,11.64 -14.03,15.09 -5.97,3.45 -13.09,5.18 -21.33,5.18 -6.25,0 -11.62,-1.28 -16.14,-3.83 -4.5,-2.55 -7.95,-6.15 -10.33,-10.82 -2.37,-4.66 -3.56,-9.97 -3.56,-15.98 0,-7.73 1.7,-14.9 5.12,-21.47 3.42,-6.59 8.14,-11.63 14.13,-15.11 5.98,-3.49 12.94,-5.22 20.86,-5.22 9.4,0 16.82,2.73 22.22,8.2 5.41,5.47 8.11,12.98 8.11,22.51zm-22.43 0.71c0,-4.27 -0.88,-7.53 -2.65,-9.76 -1.79,-2.23 -4.32,-3.35 -7.66,-3.35 -3.05,0 -5.71,1.03 -8,3.08 -2.28,2.05 -4.07,4.89 -5.35,8.52 -1.28,3.64 -1.94,7.44 -1.94,11.41 0,4.33 0.9,7.6 2.69,9.8 1.8,2.21 4.27,3.31 7.44,3.31 2.93,0 5.55,-0.92 7.85,-2.74 2.32,-1.83 4.17,-4.6 5.55,-8.34 1.39,-3.73 2.07,-7.7 2.07,-11.93z"/>
 </g>
</svg>
