<?xml version="1.0" encoding="UTF-8"?>
<!DOCTYPE svg PUBLIC "-//W3C//DTD SVG 1.1//EN" "http://www.w3.org/Graphics/SVG/1.1/DTD/svg11.dtd">
<!-- Creator: CorelDRAW 2019 (64 Bit) -->
<svg xmlns="http://www.w3.org/2000/svg" xml:space="preserve" width="289px" height="43px" version="1.1" style="shape-rendering:geometricPrecision; text-rendering:geometricPrecision; image-rendering:optimizeQuality; fill-rule:evenodd; clip-rule:evenodd"
viewBox="0 0 289 43.06"
 xmlns:xlink="http://www.w3.org/1999/xlink">
 <defs>
  <style type="text/css">
   <![CDATA[
    .fil0 {fill:#AFB0C4}
    .fil1 {fill:#FEFEFE;fill-rule:nonzero}
   ]]>
  </style>
 </defs>
 <g id="Camada_x0020_1">
  <metadata id="CorelCorpID_0Corel-Layer"/>
  <g id="_1873775294672">
   <path class="fil0" d="M9.05 0.44l270.27 0c5.15,0 9.37,4.21 9.37,9.36l0 24.34c0,5.15 -4.22,9.37 -9.37,9.37l-270.27 0c-5.15,0 -9.36,-4.22 -9.36,-9.37l0 -24.34c0,-5.15 4.21,-9.36 9.36,-9.36z"/>
   <path class="fil1" d="M79.1 20.78c0,0.9 -0.1,1.78 -0.28,2.64 -0.19,0.86 -0.46,1.67 -0.83,2.43 -0.37,0.76 -0.84,1.46 -1.41,2.09 -0.57,0.63 -1.24,1.17 -2.01,1.63 -0.77,0.46 -1.65,0.81 -2.63,1.07 -0.99,0.25 -2.08,0.38 -3.28,0.38l-6.96 0 3.66 -17.2 6.05 0c1.26,0 2.37,0.17 3.33,0.52 0.95,0.34 1.75,0.81 2.4,1.43 0.65,0.61 1.14,1.34 1.46,2.19 0.33,0.86 0.5,1.79 0.5,2.82zm-4.11 0.3c0,-0.64 -0.08,-1.22 -0.27,-1.72 -0.18,-0.51 -0.45,-0.94 -0.82,-1.29 -0.37,-0.36 -0.85,-0.63 -1.42,-0.82 -0.56,-0.18 -1.23,-0.28 -2.01,-0.28l-1.88 0 -2.32 10.91 2.36 0c0.98,0 1.86,-0.16 2.64,-0.49 0.79,-0.32 1.46,-0.78 2.01,-1.38 0.55,-0.59 0.97,-1.31 1.27,-2.15 0.3,-0.83 0.44,-1.76 0.44,-2.78zm25.54 -0.16c0,0.69 -0.07,1.38 -0.19,2.08 -0.11,0.69 -0.29,1.36 -0.53,2.02 -0.23,0.65 -0.53,1.28 -0.89,1.87 -0.35,0.61 -0.77,1.15 -1.24,1.65 -0.4,0.42 -0.84,0.81 -1.31,1.15 -0.47,0.34 -0.98,0.64 -1.54,0.88 -0.55,0.24 -1.16,0.42 -1.8,0.55 -0.65,0.14 -1.35,0.2 -2.1,0.2 -1.14,0 -2.15,-0.19 -3.05,-0.56 -0.88,-0.38 -1.64,-0.9 -2.26,-1.56 -0.61,-0.65 -1.08,-1.44 -1.41,-2.34 -0.32,-0.9 -0.48,-1.89 -0.48,-2.94 0,-0.74 0.06,-1.48 0.19,-2.2 0.13,-0.73 0.32,-1.42 0.58,-2.09 0.26,-0.67 0.59,-1.3 0.97,-1.91 0.39,-0.6 0.84,-1.15 1.35,-1.66 0.4,-0.38 0.83,-0.73 1.3,-1.04 0.46,-0.3 0.96,-0.57 1.5,-0.8 0.54,-0.22 1.11,-0.39 1.73,-0.51 0.61,-0.12 1.27,-0.18 1.98,-0.18 1.06,0 2.04,0.17 2.92,0.51 0.88,0.33 1.64,0.82 2.27,1.45 0.63,0.64 1.13,1.41 1.48,2.33 0.35,0.91 0.53,1.95 0.53,3.1zm-4.11 0.13c0,-0.65 -0.08,-1.22 -0.24,-1.73 -0.17,-0.52 -0.4,-0.95 -0.71,-1.31 -0.3,-0.35 -0.67,-0.63 -1.11,-0.81 -0.43,-0.19 -0.93,-0.29 -1.48,-0.29 -0.64,0 -1.25,0.15 -1.82,0.45 -0.58,0.29 -1.09,0.71 -1.54,1.23 -0.27,0.32 -0.51,0.69 -0.72,1.11 -0.2,0.41 -0.38,0.85 -0.52,1.32 -0.15,0.46 -0.26,0.94 -0.33,1.42 -0.08,0.48 -0.12,0.96 -0.12,1.43 0,0.65 0.08,1.23 0.25,1.74 0.16,0.51 0.39,0.94 0.7,1.29 0.3,0.35 0.67,0.62 1.1,0.8 0.42,0.18 0.9,0.28 1.43,0.28 0.66,0 1.28,-0.15 1.88,-0.44 0.6,-0.29 1.12,-0.71 1.56,-1.28 0.28,-0.34 0.52,-0.71 0.73,-1.13 0.21,-0.42 0.38,-0.86 0.52,-1.32 0.13,-0.45 0.24,-0.92 0.31,-1.39 0.07,-0.47 0.11,-0.93 0.11,-1.37zm25.39 9.97l-4.13 0 -0.73 -11.16c-0.01,-0.12 -0.01,-0.26 0.01,-0.43 0.01,-0.16 0.02,-0.34 0.05,-0.51 0.02,-0.18 0.04,-0.35 0.06,-0.51 0.03,-0.17 0.05,-0.31 0.07,-0.43l-0.04 0c-0.05,0.13 -0.09,0.28 -0.16,0.45 -0.06,0.16 -0.12,0.34 -0.18,0.51 -0.07,0.18 -0.13,0.35 -0.19,0.51 -0.07,0.16 -0.13,0.29 -0.18,0.41l-5.46 11.16 -4.43 0 -0.87 -17.2 4.07 0 0.12 11.41c0.01,0.13 0.01,0.29 0,0.46 -0.01,0.18 -0.03,0.36 -0.05,0.53 -0.03,0.18 -0.05,0.35 -0.08,0.5 -0.02,0.16 -0.04,0.28 -0.06,0.39l0.07 0c0.04,-0.12 0.08,-0.26 0.14,-0.42 0.05,-0.17 0.11,-0.34 0.18,-0.52 0.07,-0.18 0.14,-0.36 0.22,-0.53 0.07,-0.17 0.14,-0.32 0.2,-0.44l5.53 -11.38 4.1 0 0.56 11.53c0.01,0.11 0.01,0.24 0.01,0.39 -0.01,0.15 -0.01,0.3 -0.02,0.46 -0.01,0.16 -0.02,0.32 -0.04,0.47 -0.01,0.16 -0.03,0.3 -0.04,0.42l0.04 0c0.04,-0.11 0.08,-0.25 0.13,-0.41 0.06,-0.16 0.11,-0.33 0.17,-0.49 0.06,-0.17 0.12,-0.34 0.18,-0.5 0.06,-0.16 0.11,-0.29 0.16,-0.41l4.77 -11.46 4.05 0 -8.23 17.2zm25.29 0l-3.54 0 -5.39 -10.93c-0.04,-0.09 -0.1,-0.21 -0.16,-0.33 -0.05,-0.13 -0.11,-0.26 -0.16,-0.39 -0.06,-0.13 -0.11,-0.26 -0.16,-0.38 -0.04,-0.12 -0.08,-0.23 -0.11,-0.33l-0.07 0c-0.04,0.3 -0.08,0.63 -0.13,1 -0.05,0.37 -0.12,0.73 -0.21,1.09l-2.19 10.27 -3.63 0 3.63 -17.2 3.84 0 5.16 10.52c0.04,0.09 0.09,0.19 0.15,0.32 0.06,0.12 0.12,0.25 0.18,0.38 0.06,0.13 0.11,0.26 0.17,0.39 0.05,0.13 0.09,0.24 0.11,0.34l0.05 0c0.01,-0.12 0.02,-0.26 0.03,-0.4 0.02,-0.15 0.04,-0.3 0.06,-0.45 0.03,-0.16 0.05,-0.3 0.08,-0.45 0.03,-0.14 0.06,-0.27 0.08,-0.38l2.18 -10.27 3.66 0 -3.63 17.2zm16.92 0l-10.26 0 3.65 -17.2 3.92 0 -2.98 14.01 6.35 0 -0.68 3.19zm21.69 -10.1c0,0.69 -0.07,1.38 -0.19,2.08 -0.11,0.69 -0.29,1.36 -0.53,2.02 -0.23,0.65 -0.53,1.28 -0.89,1.87 -0.35,0.61 -0.77,1.15 -1.24,1.65 -0.4,0.42 -0.84,0.81 -1.31,1.15 -0.47,0.34 -0.98,0.64 -1.54,0.88 -0.55,0.24 -1.16,0.42 -1.8,0.55 -0.65,0.14 -1.35,0.2 -2.1,0.2 -1.14,0 -2.15,-0.19 -3.05,-0.56 -0.88,-0.38 -1.64,-0.9 -2.26,-1.56 -0.61,-0.65 -1.08,-1.44 -1.41,-2.34 -0.32,-0.9 -0.48,-1.89 -0.48,-2.94 0,-0.74 0.06,-1.48 0.19,-2.2 0.13,-0.73 0.32,-1.42 0.58,-2.09 0.26,-0.67 0.59,-1.3 0.97,-1.91 0.39,-0.6 0.84,-1.15 1.35,-1.66 0.4,-0.38 0.84,-0.73 1.3,-1.04 0.46,-0.3 0.96,-0.57 1.5,-0.8 0.54,-0.22 1.11,-0.39 1.73,-0.51 0.61,-0.12 1.27,-0.18 1.98,-0.18 1.06,0 2.04,0.17 2.92,0.51 0.88,0.33 1.64,0.82 2.27,1.45 0.63,0.64 1.13,1.41 1.48,2.33 0.35,0.91 0.53,1.95 0.53,3.1zm-4.11 0.13c0,-0.65 -0.08,-1.22 -0.24,-1.73 -0.17,-0.52 -0.4,-0.95 -0.71,-1.31 -0.3,-0.35 -0.67,-0.63 -1.11,-0.81 -0.43,-0.19 -0.93,-0.29 -1.48,-0.29 -0.64,0 -1.24,0.15 -1.82,0.45 -0.58,0.29 -1.09,0.71 -1.54,1.23 -0.27,0.32 -0.51,0.69 -0.72,1.11 -0.2,0.41 -0.38,0.85 -0.52,1.32 -0.15,0.46 -0.26,0.94 -0.33,1.42 -0.08,0.48 -0.12,0.96 -0.12,1.43 0,0.65 0.08,1.23 0.25,1.74 0.16,0.51 0.39,0.94 0.7,1.29 0.3,0.35 0.67,0.62 1.1,0.8 0.42,0.18 0.9,0.28 1.43,0.28 0.66,0 1.28,-0.15 1.88,-0.44 0.6,-0.29 1.12,-0.71 1.56,-1.28 0.28,-0.34 0.53,-0.71 0.73,-1.13 0.21,-0.42 0.38,-0.86 0.52,-1.32 0.14,-0.45 0.24,-0.92 0.31,-1.39 0.08,-0.47 0.11,-0.93 0.11,-1.37zm18.85 9.97l-0.49 -3.83 -6.17 0 -2.01 3.83 -4.37 0 9.92 -17.2 4.62 0 2.46 17.2 -3.96 0zm-1.41 -12.61c0,-0.12 -0.01,-0.27 -0.01,-0.42 -0.01,-0.16 -0.01,-0.31 0,-0.45 0,-0.15 0.01,-0.28 0.01,-0.39 0.01,-0.12 0.02,-0.21 0.03,-0.26l-0.07 0c-0.02,0.07 -0.05,0.16 -0.09,0.27 -0.04,0.12 -0.08,0.24 -0.14,0.37 -0.05,0.13 -0.11,0.27 -0.18,0.42 -0.06,0.14 -0.13,0.28 -0.2,0.41l-3.15 5.86 4.43 0 -0.63 -5.81zm27.64 2.37c0,0.9 -0.1,1.78 -0.28,2.64 -0.19,0.86 -0.47,1.67 -0.83,2.43 -0.38,0.76 -0.85,1.46 -1.42,2.09 -0.56,0.63 -1.23,1.17 -2,1.63 -0.78,0.46 -1.65,0.81 -2.64,1.07 -0.98,0.25 -2.07,0.38 -3.27,0.38l-6.96 0 3.66 -17.2 6.05 0c1.26,0 2.37,0.17 3.32,0.52 0.96,0.34 1.76,0.81 2.41,1.43 0.65,0.61 1.13,1.34 1.46,2.19 0.33,0.86 0.5,1.79 0.5,2.82zm-4.11 0.3c0,-0.64 -0.09,-1.22 -0.27,-1.72 -0.18,-0.51 -0.46,-0.94 -0.82,-1.29 -0.38,-0.36 -0.85,-0.63 -1.42,-0.82 -0.56,-0.18 -1.24,-0.28 -2.01,-0.28l-1.89 0 -2.31 10.91 2.36 0c0.98,0 1.86,-0.16 2.64,-0.49 0.79,-0.32 1.45,-0.78 2.01,-1.38 0.55,-0.59 0.97,-1.31 1.27,-2.15 0.29,-0.83 0.44,-1.76 0.44,-2.78z"/>
  </g>
 </g>
</svg>
