<?xml version="1.0" encoding="UTF-8"?>
<!DOCTYPE svg PUBLIC "-//W3C//DTD SVG 1.1//EN" "http://www.w3.org/Graphics/SVG/1.1/DTD/svg11.dtd">
<!-- Creator: CorelDRAW 2019 (64 Bit) -->
<svg xmlns="http://www.w3.org/2000/svg" xml:space="preserve" width="65px" height="65px" version="1.1" style="shape-rendering:geometricPrecision; text-rendering:geometricPrecision; image-rendering:optimizeQuality; fill-rule:evenodd; clip-rule:evenodd"
viewBox="0 0 65 65"
 xmlns:xlink="http://www.w3.org/1999/xlink">
 <defs>
  <style type="text/css">
   <![CDATA[
    .fil0 {fill:#FF0009}
   ]]>
  </style>
 </defs>
 <g id="Camada_x0020_1">
  <metadata id="CorelCorpID_0Corel-Layer"/>
  <g id="_1874189775696">
   <g>
    <path class="fil0" d="M32.19 0.9c-17.92,0 -32.5,14.58 -32.5,32.5 0,11.26 5.7,21.57 15.26,27.56 0.62,0.38 1.43,0.2 1.82,-0.42 0.39,-0.62 0.2,-1.44 -0.41,-1.83 -8.79,-5.5 -14.03,-14.96 -14.03,-25.31 0,-16.46 13.39,-29.85 29.86,-29.85 16.46,0 29.85,13.39 29.85,29.85 0,16.46 -13.39,29.85 -29.85,29.85 -0.73,0 -1.33,0.59 -1.33,1.33 0,0.73 0.6,1.32 1.33,1.32 17.92,0 32.49,-14.58 32.49,-32.5 0,-17.92 -14.57,-32.5 -32.49,-32.5z"/>
    <path class="fil0" d="M29.45 18.79l14.45 1.92c0.51,0.07 0.91,0.47 0.98,0.98l1.91 14.44c0.09,0.67 0.66,1.15 1.31,1.15 0.06,0 0.12,0 0.18,-0.01 0.72,-0.1 1.23,-0.76 1.13,-1.49l-1.91 -14.44c-0.23,-1.69 -1.56,-3.03 -3.26,-3.25l-14.44 -1.92c-1.63,-0.22 -3.16,0.6 -3.89,2.08 -0.73,1.47 -0.45,3.18 0.72,4.35l10.35 10.35c0.52,0.52 1.36,0.52 1.87,0 0.52,-0.51 0.52,-1.35 0,-1.87l-10.35 -10.35c-0.54,-0.54 -0.3,-1.14 -0.22,-1.31 0.09,-0.17 0.42,-0.73 1.17,-0.63z"/>
    <path class="fil0" d="M35.1 50.66c0,0 0,0 0,0 1.52,0 2.88,-0.92 3.47,-2.34 0.59,-1.44 0.28,-3.02 -0.82,-4.12l-16.36 -16.36c-0.72,-0.72 -1.67,-1.12 -2.66,-1.12 -1.1,0 -2.16,0.48 -2.89,1.32 -0.71,0.81 -1.03,1.87 -0.88,2.97l1.91 14.45c0.23,1.69 1.57,3.03 3.26,3.25l14.44 1.92c0.18,0.02 0.35,0.03 0.53,0.03zm-15.6 -5.55l-1.92 -14.44c-0.05,-0.35 0.04,-0.65 0.25,-0.89 0.23,-0.26 0.56,-0.41 0.9,-0.41 0.29,0 0.56,0.11 0.78,0.34l16.36 16.36c0.49,0.49 0.34,1.03 0.25,1.24 -0.14,0.34 -0.48,0.71 -1.02,0.71l0 0c-0.06,0 -0.12,-0.01 -0.18,-0.01l-14.44 -1.92c-0.51,-0.07 -0.92,-0.47 -0.98,-0.98z"/>
   </g>
   <g>
   </g>
   <g>
   </g>
   <g>
   </g>
   <g>
   </g>
   <g>
   </g>
   <g>
   </g>
   <g>
   </g>
   <g>
   </g>
   <g>
   </g>
   <g>
   </g>
   <g>
   </g>
   <g>
   </g>
   <g>
   </g>
   <g>
   </g>
   <g>
   </g>
  </g>
 </g>
</svg>
