<?xml version="1.0" encoding="UTF-8"?>
<!DOCTYPE svg PUBLIC "-//W3C//DTD SVG 1.1//EN" "http://www.w3.org/Graphics/SVG/1.1/DTD/svg11.dtd">
<!-- Creator: CorelDRAW 2019 (64 Bit) -->
<svg xmlns="http://www.w3.org/2000/svg" xml:space="preserve" width="14.817mm" height="14.817mm" version="1.1" style="shape-rendering:geometricPrecision; text-rendering:geometricPrecision; image-rendering:optimizeQuality; fill-rule:evenodd; clip-rule:evenodd"
viewBox="0 0 1481.7 1481.7"
 xmlns:xlink="http://www.w3.org/1999/xlink">
 <defs>
  <style type="text/css">
   <![CDATA[
    .str0 {stroke:#373435;stroke-width:20;stroke-miterlimit:22.9256}
    .fil1 {fill:white}
    .fil0 {fill:url(#id0)}
   ]]>
  </style>
  <linearGradient id="id0" gradientUnits="userSpaceOnUse" x1="983.06" y1="578.72" x2="983.07" y2="1130.44">
   <stop offset="0" style="stop-opacity:1; stop-color:#4F5363"/>
   <stop offset="1" style="stop-opacity:1; stop-color:#242529"/>
  </linearGradient>
 </defs>
 <g id="Camada_x0020_1">
  <metadata id="CorelCorpID_0Corel-Layer"/>
  <rect class="fil0 str0" x="252.69" y="229.89" width="979.04" height="1021.29"/>
  <path class="fil1" d="M1108.63 103.72c113.24,66.15 203.2,156.1 269.35,269.61 66.41,113.51 99.48,237.33 99.48,371.74 0,134.41 -33.07,258.5 -99.48,371.74 -66.15,113.51 -155.84,203.46 -269.35,269.61 -113.51,66.41 -237.6,99.48 -372,99.48 -134.41,0 -258.23,-33.07 -371.74,-99.48 -113.51,-66.15 -203.46,-156.1 -269.61,-269.61 -66.41,-113.24 -99.48,-237.33 -99.48,-371.74 0,-134.41 33.07,-258.5 99.48,-371.74 66.15,-113.51 156.1,-203.46 269.61,-269.61 113.51,-66.41 237.33,-99.48 371.74,-99.48 134.41,0 258.5,33.07 372,99.48zm-508 160.07l-98.43 98.43c-12.17,12.17 -18.26,26.46 -18.26,43.39 0,16.67 6.09,31.22 18.26,43.39l296.07 296.07 -296.07 296.07c-12.17,12.17 -18.26,26.72 -18.26,43.39 0,16.93 6.09,31.22 18.26,43.39l98.43 98.43c12.17,12.17 26.72,18.52 43.39,18.52 16.67,0 31.22,-6.35 43.39,-18.52l437.89 -437.89c12.17,-12.17 18.52,-26.72 18.52,-43.39 0,-16.67 -6.35,-31.22 -18.52,-43.39l-437.89 -437.89c-12.17,-12.17 -26.72,-18.52 -43.39,-18.52 -16.67,0 -31.22,6.09 -43.39,18.52z"/>
 </g>
</svg>
